<svg width="40" height="40" viewBox="0 0 40 40" fill="none" xmlns="http://www.w3.org/2000/svg">
<path d="M21.6666 15C21.6666 15.442 21.491 15.866 21.1784 16.1785C20.8659 16.4911 20.4419 16.6667 19.9999 16.6667C19.5579 16.6667 19.134 16.4911 18.8214 16.1785C18.5088 15.866 18.3333 15.442 18.3333 15C18.3333 14.558 18.5088 14.1341 18.8214 13.8215C19.134 13.5089 19.5579 13.3333 19.9999 13.3333C20.4419 13.3333 20.8659 13.5089 21.1784 13.8215C21.491 14.1341 21.6666 14.558 21.6666 15Z" stroke="black" stroke-width="3" stroke-linejoin="round"/>
<path d="M29.1666 15.8333C29.1666 20.8967 25.8333 26.6667 19.9999 33.3333C14.1666 26.6667 10.8333 20.8967 10.8333 15.8333C10.8333 13.4022 11.799 11.0706 13.5181 9.35153C15.2372 7.63244 17.5688 6.66667 19.9999 6.66667C22.4311 6.66667 24.7626 7.63244 26.4817 9.35153C28.2008 11.0706 29.1666 13.4022 29.1666 15.8333Z" stroke="black" stroke-width="3" stroke-linejoin="round"/>
</svg>
