<svg width="40" height="40" viewBox="0 0 40 40" fill="none" xmlns="http://www.w3.org/2000/svg">
<path d="M24.9999 16.6667C24.9999 15.75 25.7499 15 26.6666 15C27.5833 15 28.3333 15.75 28.3333 16.6667C28.3333 17.5833 27.5833 18.3333 26.6666 18.3333C25.7499 18.3333 24.9999 17.5833 24.9999 16.6667ZM13.3333 15H21.6666V11.6667H13.3333V15ZM36.6666 12.5V24.1167L31.9666 25.6833L29.1666 35H19.9999V31.6667H16.6666V35H7.49992C7.49992 35 3.33325 20.9 3.33325 15.8333C3.33325 10.7667 7.43325 6.66666 12.4999 6.66666H20.8333C22.3499 4.64999 24.7666 3.33333 27.4999 3.33333C27.9118 3.33342 28.3172 3.4354 28.6801 3.63018C29.043 3.82497 29.3521 4.10651 29.5798 4.44971C29.8075 4.79292 29.9468 5.18712 29.9852 5.5972C30.0236 6.00727 29.9599 6.42048 29.7999 6.79999C29.5666 7.36666 29.3666 8.01666 29.2666 8.71666L33.0499 12.5H36.6666ZM33.3333 15.8333H31.6666L25.8333 9.99999C25.8333 8.91666 25.9833 7.85 26.2666 6.81666C24.6499 7.23333 23.3333 8.43333 22.7833 9.99999H12.4999C9.28325 9.99999 6.66659 12.6167 6.66659 15.8333C6.66659 18.9667 8.69992 26.9167 9.99992 31.6667H13.3333V28.3333H23.3333V31.6667H26.6666L29.2666 23.0833L33.3333 21.7167V15.8333Z" fill="black"/>
</svg>
