<svg width="40" height="40" viewBox="0 0 40 40" fill="none" xmlns="http://www.w3.org/2000/svg">
<path d="M13.3333 9.99999C13.3333 10.442 13.1577 10.8659 12.8452 11.1785C12.5326 11.4911 12.1087 11.6667 11.6667 11.6667C11.2246 11.6667 10.8007 11.4911 10.4882 11.1785C10.1756 10.8659 10 10.442 10 9.99999C10 9.55797 10.1756 9.13404 10.4882 8.82148C10.8007 8.50892 11.2246 8.33333 11.6667 8.33333C12.1087 8.33333 12.5326 8.50892 12.8452 8.82148C13.1577 9.13404 13.3333 9.55797 13.3333 9.99999ZM11.6667 16.6667C12.1087 16.6667 12.5326 16.4911 12.8452 16.1785C13.1577 15.8659 13.3333 15.442 13.3333 15C13.3333 14.558 13.1577 14.134 12.8452 13.8215C12.5326 13.5089 12.1087 13.3333 11.6667 13.3333C11.2246 13.3333 10.8007 13.5089 10.4882 13.8215C10.1756 14.134 10 14.558 10 15C10 15.442 10.1756 15.8659 10.4882 16.1785C10.8007 16.4911 11.2246 16.6667 11.6667 16.6667ZM13.3333 20C13.3333 20.442 13.1577 20.8659 12.8452 21.1785C12.5326 21.4911 12.1087 21.6667 11.6667 21.6667C11.2246 21.6667 10.8007 21.4911 10.4882 21.1785C10.1756 20.8659 10 20.442 10 20C10 19.558 10.1756 19.134 10.4882 18.8215C10.8007 18.5089 11.2246 18.3333 11.6667 18.3333C12.1087 18.3333 12.5326 18.5089 12.8452 18.8215C13.1577 19.134 13.3333 19.558 13.3333 20ZM13.3333 25C13.3333 25.442 13.1577 25.8659 12.8452 26.1785C12.5326 26.4911 12.1087 26.6667 11.6667 26.6667C11.2246 26.6667 10.8007 26.4911 10.4882 26.1785C10.1756 25.8659 10 25.442 10 25C10 24.558 10.1756 24.134 10.4882 23.8215C10.8007 23.5089 11.2246 23.3333 11.6667 23.3333C12.1087 23.3333 12.5326 23.5089 12.8452 23.8215C13.1577 24.134 13.3333 24.558 13.3333 25ZM11.6667 31.6667C12.1087 31.6667 12.5326 31.4911 12.8452 31.1785C13.1577 30.8659 13.3333 30.442 13.3333 30C13.3333 29.558 13.1577 29.134 12.8452 28.8215C12.5326 28.5089 12.1087 28.3333 11.6667 28.3333C11.2246 28.3333 10.8007 28.5089 10.4882 28.8215C10.1756 29.134 10 29.558 10 30C10 30.442 10.1756 30.8659 10.4882 31.1785C10.8007 31.4911 11.2246 31.6667 11.6667 31.6667ZM23.3333 26.6667C23.7754 26.6667 24.1993 26.4911 24.5118 26.1785C24.8244 25.8659 25 25.442 25 25C25 24.558 24.8244 24.134 24.5118 23.8215C24.1993 23.5089 23.7754 23.3333 23.3333 23.3333C22.8913 23.3333 22.4674 23.5089 22.1548 23.8215C21.8423 24.134 21.6667 24.558 21.6667 25C21.6667 25.442 21.8423 25.8659 22.1548 26.1785C22.4674 26.4911 22.8913 26.6667 23.3333 26.6667ZM28.3333 26.6667C28.7754 26.6667 29.1993 26.4911 29.5118 26.1785C29.8244 25.8659 30 25.442 30 25C30 24.558 29.8244 24.134 29.5118 23.8215C29.1993 23.5089 28.7754 23.3333 28.3333 23.3333C27.8913 23.3333 27.4674 23.5089 27.1548 23.8215C26.8423 24.134 26.6667 24.558 26.6667 25C26.6667 25.442 26.8423 25.8659 27.1548 26.1785C27.4674 26.4911 27.8913 26.6667 28.3333 26.6667ZM28.3333 21.6667C28.7754 21.6667 29.1993 21.4911 29.5118 21.1785C29.8244 20.8659 30 20.442 30 20C30 19.558 29.8244 19.134 29.5118 18.8215C29.1993 18.5089 28.7754 18.3333 28.3333 18.3333C27.8913 18.3333 27.4674 18.5089 27.1548 18.8215C26.8423 19.134 26.6667 19.558 26.6667 20C26.6667 20.442 26.8423 20.8659 27.1548 21.1785C27.4674 21.4911 27.8913 21.6667 28.3333 21.6667ZM25 20C25 20.442 24.8244 20.8659 24.5118 21.1785C24.1993 21.4911 23.7754 21.6667 23.3333 21.6667C22.8913 21.6667 22.4674 21.4911 22.1548 21.1785C21.8423 20.8659 21.6667 20.442 21.6667 20C21.6667 19.558 21.8423 19.134 22.1548 18.8215C22.4674 18.5089 22.8913 18.3333 23.3333 18.3333C23.7754 18.3333 24.1993 18.5089 24.5118 18.8215C24.8244 19.134 25 19.558 25 20ZM28.3333 16.6667C28.7754 16.6667 29.1993 16.4911 29.5118 16.1785C29.8244 15.8659 30 15.442 30 15C30 14.558 29.8244 14.134 29.5118 13.8215C29.1993 13.5089 28.7754 13.3333 28.3333 13.3333C27.8913 13.3333 27.4674 13.5089 27.1548 13.8215C26.8423 14.134 26.6667 14.558 26.6667 15C26.6667 15.442 26.8423 15.8659 27.1548 16.1785C27.4674 16.4911 27.8913 16.6667 28.3333 16.6667ZM25 15C25 15.442 24.8244 15.8659 24.5118 16.1785C24.1993 16.4911 23.7754 16.6667 23.3333 16.6667C22.8913 16.6667 22.4674 16.4911 22.1548 16.1785C21.8423 15.8659 21.6667 15.442 21.6667 15C21.6667 14.558 21.8423 14.134 22.1548 13.8215C22.4674 13.5089 22.8913 13.3333 23.3333 13.3333C23.7754 13.3333 24.1993 13.5089 24.5118 13.8215C24.8244 14.134 25 14.558 25 15ZM23.3333 8.33333V7.08333C23.3333 6.08877 22.9382 5.13494 22.235 4.43168C21.5317 3.72842 20.5779 3.33333 19.5833 3.33333H8.75C7.75544 3.33333 6.80161 3.72842 6.09835 4.43168C5.39509 5.13494 5 6.08877 5 7.08333V34.5833C5 35.2733 5.56 35.8333 6.25 35.8333H33.75C34.0815 35.8333 34.3995 35.7016 34.6339 35.4672C34.8683 35.2328 35 34.9148 35 34.5833V12.0833C35 11.0888 34.6049 10.1349 33.9016 9.43168C33.1984 8.72842 32.2446 8.33333 31.25 8.33333H23.3333ZM7.5 7.08333C7.5 6.75181 7.6317 6.43387 7.86612 6.19944C8.10054 5.96502 8.41848 5.83333 8.75 5.83333H19.5833C19.9149 5.83333 20.2328 5.96502 20.4672 6.19944C20.7016 6.43387 20.8333 6.75181 20.8333 7.08333V8.33333H20.4167C19.4221 8.33333 18.4683 8.72842 17.765 9.43168C17.0618 10.1349 16.6667 11.0888 16.6667 12.0833V33.3333H7.5V7.08333ZM24.1667 33.3333V30.8333H27.5V33.3333H24.1667ZM30 29.5833C30 29.2518 29.8683 28.9339 29.6339 28.6994C29.3995 28.465 29.0815 28.3333 28.75 28.3333H22.9167C22.5851 28.3333 22.2672 28.465 22.0328 28.6994C21.7984 28.9339 21.6667 29.2518 21.6667 29.5833V33.3333H19.1667V12.0833C19.1667 11.7518 19.2984 11.4339 19.5328 11.1994C19.7672 10.965 20.0851 10.8333 20.4167 10.8333H31.25C31.5815 10.8333 31.8995 10.965 32.1339 11.1994C32.3683 11.4339 32.5 11.7518 32.5 12.0833V33.3333H30V29.5833Z" fill="black"/>
</svg>
